<svg height="512pt" viewBox="0 0 512 512" width="512pt" xmlns="http://www.w3.org/2000/svg"><path d="m482 0v30h-226c-40.296875 0-78.964844 10.535156-112.890625 30.277344-10.785156-18.890625-30.714844-30.277344-52.109375-30.277344-33.085938 0-60 26.914062-60 60 0 21.378906 11.371094 41.3125 30.277344 52.109375-19.742188 33.925781-30.277344 72.59375-30.277344 112.890625v227h-31v30h181v-30h-30v-27.890625c31.976562 16.914063 67.796875 25.890625 105 25.890625 40.296875 0 78.964844-10.535156 112.890625-30.277344 10.785156 18.890625 30.714844 30.277344 52.109375 30.277344 33.085938 0 60-26.914062 60-60 0-21.378906-11.371094-41.3125-30.277344-52.109375 19.742188-33.925781 30.277344-72.59375 30.277344-112.890625 0-36.980469-8.914062-72.796875-25.953125-105h26.953125v30h30v-180zm-421 90c0-16.542969 13.457031-30 30-30 11.726562 0 22.226562 6.980469 27.101562 17.171875-14.378906 11.195313-27.945312 24.539063-39.929687 39.929687-10.191406-4.875-17.171875-15.375-17.171875-27.101562zm60 392h-60v-114.585938c14.648438 25.316407 34.785156 48.636719 60 67.621094zm330-62c0 16.542969-13.457031 30-30 30-11.726562 0-22.226562-6.980469-27.101562-17.171875 7.386718-5.753906 14.472656-12 21.199218-18.726563 6.730469-6.730468 12.976563-13.8125 18.730469-21.203124 10.191406 4.875 17.171875 15.375 17.171875 27.101562zm-201.214844-300-.152344.152344c-71.496093 3.339844-128.632812 62.542968-128.632812 134.847656 0 74.4375 60.5625 135 135 135s135-60.5625 135-135c0-42.367188-19.621094-80.230469-50.25-105h79.597656c20.078125 31.335938 30.652344 67.472656 30.652344 105 0 107.523438-87.476562 195-195 195s-195-87.476562-195-195 87.476562-195 195-195h226v60zm-8.785156 135c0-8.269531 6.730469-15 15-15s15 6.730469 15 15-6.730469 15-15 15-15-6.730469-15-15zm22.339844-44.390625c-4.984375-.820313-10.054688-.84375-15.390625.125-4.835938-21.125.414062-43.695313 14.464843-60.53125 24.859376 1.503906 47.40625 11.695313 64.648438 27.570313-24.265625 2.71875-47.160156 14.253906-63.722656 32.835937zm-42.109375 15.859375c-3.25 3.949219-5.835938 8.464844-7.59375 13.367188-20.695313-6.378907-37.597657-22.207032-45.152344-42.785157 13.203125-19.871093 32.976563-35.011719 56.203125-42.28125-9.816406 22.398438-11.28125 48.027344-3.457031 71.699219zm-7.34375 44.371094c1.839843 4.875 4.503906 9.347656 7.820312 13.25-15.875 14.757812-38.050781 21.496094-59.660156 17.75-7.0625-14.109375-11.046875-30.015625-11.046875-46.839844 0-7.90625.882812-15.609375 2.550781-23.019531 14.480469 19.703125 35.933594 33.792969 60.335938 38.859375zm34.773437 28.550781c4.972656.820313 10.042969.84375 15.390625-.125 4.835938 21.125-.417969 43.695313-14.472656 60.53125-24.851563-1.507813-47.398437-11.695313-64.636719-27.566406 24.265625-2.71875 47.15625-14.261719 63.71875-32.839844zm42.109375-15.859375c3.25-3.949219 5.835938-8.464844 7.59375-13.371094 20.695313 6.378906 37.597657 22.207032 45.152344 42.789063-13.203125 19.871093-32.976563 35.011719-56.203125 42.28125 9.816406-22.398438 11.28125-48.027344 3.457031-71.699219zm7.34375-44.371094c-1.839843-4.875-4.503906-9.347656-7.820312-13.25 15.875-14.757812 38.050781-21.496094 59.660156-17.75 7.0625 14.109375 11.046875 30.015625 11.046875 46.839844 0 7.90625-.882812 15.609375-2.550781 23.019531-14.480469-19.703125-35.933594-33.796875-60.335938-38.859375zm0 0"/></svg>