<?xml version="1.0" standalone="no"?>
<!DOCTYPE svg PUBLIC "-//W3C//DTD SVG 20010904//EN"
 "http://www.w3.org/TR/2001/REC-SVG-20010904/DTD/svg10.dtd">
<svg version="1.0" xmlns="http://www.w3.org/2000/svg"
 width="225.000000pt" height="225.000000pt" viewBox="0 0 225.000000 225.000000"
 preserveAspectRatio="xMidYMid meet">

<g transform="translate(0.000000,225.000000) scale(0.100000,-0.100000)"
fill="#000000" stroke="none">
<path d="M972 2150 c-35 -5 -80 -14 -100 -21 -65 -21 -166 -76 -211 -116 -71
-60 -540 -593 -572 -648 -42 -72 -68 -147 -80 -228 -9 -64 -6 -108 31 -392 23
-176 46 -338 52 -360 37 -146 172 -263 331 -286 92 -13 1614 -12 1677 2 65 14
123 66 139 126 8 30 11 281 9 875 l-3 833 -28 57 c-33 66 -90 119 -156 145
-41 16 -94 18 -536 19 -269 1 -518 -2 -553 -6z m996 -652 l2 -378 -840 0 -840
0 0 23 c0 39 39 89 298 380 265 298 298 327 394 346 24 5 255 8 513 7 l470 -1
3 -377z m70 -664 c24 -17 29 -53 10 -72 -17 -17 -329 -17 -346 0 -19 19 -14
55 10 72 18 13 52 16 163 16 111 0 145 -3 163 -16z m10 -286 c15 -15 15 -51 0
-66 -17 -17 -1739 -17 -1756 0 -15 15 -15 51 0 66 17 17 1739 17 1756 0z"/>
<path d="M906 1721 c-48 -48 -57 -63 -54 -87 2 -24 8 -30 32 -32 24 -3 39 6
87 54 62 62 74 95 40 114 -33 17 -45 12 -105 -49z"/>
<path d="M1002 1627 c-119 -119 -152 -158 -152 -179 0 -26 16 -38 49 -38 21 0
321 301 321 323 0 21 -27 47 -48 47 -10 0 -86 -69 -170 -153z"/>
</g>
</svg>
